<svg width="221" height="241" viewBox="0 0 221 241" fill="none" xmlns="http://www.w3.org/2000/svg">
<g clip-path="url(#clip0_19_1102)">
<g clip-path="url(#clip1_19_1102)">
<path d="M5.31124 9.2177C7.7032 9.2177 9.64226 7.27864 9.64226 4.88668C9.64226 2.49473 7.7032 0.555664 5.31124 0.555664C2.91929 0.555664 0.980225 2.49473 0.980225 4.88668C0.980225 7.27864 2.91929 9.2177 5.31124 9.2177Z" fill="white" fill-opacity="0.25"/>
<path d="M26.3474 9.2177C28.7393 9.2177 30.6784 7.27864 30.6784 4.88668C30.6784 2.49473 28.7393 0.555664 26.3474 0.555664C23.9554 0.555664 22.0164 2.49473 22.0164 4.88668C22.0164 7.27864 23.9554 9.2177 26.3474 9.2177Z" fill="white" fill-opacity="0.25"/>
<path d="M47.3835 9.2177C49.7755 9.2177 51.7145 7.27864 51.7145 4.88668C51.7145 2.49473 49.7755 0.555664 47.3835 0.555664C44.9916 0.555664 43.0525 2.49473 43.0525 4.88668C43.0525 7.27864 44.9916 9.2177 47.3835 9.2177Z" fill="white" fill-opacity="0.25"/>
<path d="M68.4206 9.2177C70.8126 9.2177 72.7516 7.27864 72.7516 4.88668C72.7516 2.49473 70.8126 0.555664 68.4206 0.555664C66.0287 0.555664 64.0896 2.49473 64.0896 4.88668C64.0896 7.27864 66.0287 9.2177 68.4206 9.2177Z" fill="white" fill-opacity="0.25"/>
<path d="M89.4568 9.2177C91.8487 9.2177 93.7878 7.27864 93.7878 4.88668C93.7878 2.49473 91.8487 0.555664 89.4568 0.555664C87.0648 0.555664 85.1257 2.49473 85.1257 4.88668C85.1257 7.27864 87.0648 9.2177 89.4568 9.2177Z" fill="white" fill-opacity="0.25"/>
<path d="M110.493 9.2177C112.885 9.2177 114.824 7.27864 114.824 4.88668C114.824 2.49473 112.885 0.555664 110.493 0.555664C108.101 0.555664 106.162 2.49473 106.162 4.88668C106.162 7.27864 108.101 9.2177 110.493 9.2177Z" fill="white" fill-opacity="0.25"/>
<path d="M131.529 9.2177C133.921 9.2177 135.86 7.27864 135.86 4.88668C135.86 2.49473 133.921 0.555664 131.529 0.555664C129.137 0.555664 127.198 2.49473 127.198 4.88668C127.198 7.27864 129.137 9.2177 131.529 9.2177Z" fill="white" fill-opacity="0.25"/>
<path d="M152.566 9.2177C154.958 9.2177 156.897 7.27864 156.897 4.88668C156.897 2.49473 154.958 0.555664 152.566 0.555664C150.174 0.555664 148.235 2.49473 148.235 4.88668C148.235 7.27864 150.174 9.2177 152.566 9.2177Z" fill="white" fill-opacity="0.25"/>
<path d="M173.602 9.2177C175.994 9.2177 177.933 7.27864 177.933 4.88668C177.933 2.49473 175.994 0.555664 173.602 0.555664C171.21 0.555664 169.271 2.49473 169.271 4.88668C169.271 7.27864 171.21 9.2177 173.602 9.2177Z" fill="white" fill-opacity="0.25"/>
<path d="M194.638 9.2177C197.03 9.2177 198.969 7.27864 198.969 4.88668C198.969 2.49473 197.03 0.555664 194.638 0.555664C192.246 0.555664 190.307 2.49473 190.307 4.88668C190.307 7.27864 192.246 9.2177 194.638 9.2177Z" fill="white" fill-opacity="0.25"/>
<path d="M215.675 9.2177C218.067 9.2177 220.006 7.27864 220.006 4.88668C220.006 2.49473 218.067 0.555664 215.675 0.555664C213.283 0.555664 211.344 2.49473 211.344 4.88668C211.344 7.27864 213.283 9.2177 215.675 9.2177Z" fill="white" fill-opacity="0.25"/>
<path d="M5.31124 30.2538C7.7032 30.2538 9.64226 28.3148 9.64226 25.9228C9.64226 23.5309 7.7032 21.5918 5.31124 21.5918C2.91929 21.5918 0.980225 23.5309 0.980225 25.9228C0.980225 28.3148 2.91929 30.2538 5.31124 30.2538Z" fill="white" fill-opacity="0.25"/>
<path d="M26.3474 30.2538C28.7393 30.2538 30.6784 28.3148 30.6784 25.9228C30.6784 23.5309 28.7393 21.5918 26.3474 21.5918C23.9554 21.5918 22.0164 23.5309 22.0164 25.9228C22.0164 28.3148 23.9554 30.2538 26.3474 30.2538Z" fill="white" fill-opacity="0.25"/>
<path d="M47.3835 30.2538C49.7755 30.2538 51.7145 28.3148 51.7145 25.9228C51.7145 23.5309 49.7755 21.5918 47.3835 21.5918C44.9916 21.5918 43.0525 23.5309 43.0525 25.9228C43.0525 28.3148 44.9916 30.2538 47.3835 30.2538Z" fill="white" fill-opacity="0.25"/>
<path d="M68.4206 30.2538C70.8126 30.2538 72.7516 28.3148 72.7516 25.9228C72.7516 23.5309 70.8126 21.5918 68.4206 21.5918C66.0287 21.5918 64.0896 23.5309 64.0896 25.9228C64.0896 28.3148 66.0287 30.2538 68.4206 30.2538Z" fill="white" fill-opacity="0.25"/>
<path d="M89.4568 30.2538C91.8487 30.2538 93.7878 28.3148 93.7878 25.9228C93.7878 23.5309 91.8487 21.5918 89.4568 21.5918C87.0648 21.5918 85.1257 23.5309 85.1257 25.9228C85.1257 28.3148 87.0648 30.2538 89.4568 30.2538Z" fill="white" fill-opacity="0.25"/>
<path d="M110.493 30.2538C112.885 30.2538 114.824 28.3148 114.824 25.9228C114.824 23.5309 112.885 21.5918 110.493 21.5918C108.101 21.5918 106.162 23.5309 106.162 25.9228C106.162 28.3148 108.101 30.2538 110.493 30.2538Z" fill="white" fill-opacity="0.25"/>
<path d="M131.529 30.2538C133.921 30.2538 135.86 28.3148 135.86 25.9228C135.86 23.5309 133.921 21.5918 131.529 21.5918C129.137 21.5918 127.198 23.5309 127.198 25.9228C127.198 28.3148 129.137 30.2538 131.529 30.2538Z" fill="white" fill-opacity="0.25"/>
<path d="M152.566 30.2538C154.958 30.2538 156.897 28.3148 156.897 25.9228C156.897 23.5309 154.958 21.5918 152.566 21.5918C150.174 21.5918 148.235 23.5309 148.235 25.9228C148.235 28.3148 150.174 30.2538 152.566 30.2538Z" fill="white" fill-opacity="0.25"/>
<path d="M173.602 30.2538C175.994 30.2538 177.933 28.3148 177.933 25.9228C177.933 23.5309 175.994 21.5918 173.602 21.5918C171.21 21.5918 169.271 23.5309 169.271 25.9228C169.271 28.3148 171.21 30.2538 173.602 30.2538Z" fill="white" fill-opacity="0.25"/>
<path d="M194.638 30.2538C197.03 30.2538 198.969 28.3148 198.969 25.9228C198.969 23.5309 197.03 21.5918 194.638 21.5918C192.246 21.5918 190.307 23.5309 190.307 25.9228C190.307 28.3148 192.246 30.2538 194.638 30.2538Z" fill="white" fill-opacity="0.25"/>
<path d="M215.675 30.2538C218.067 30.2538 220.006 28.3148 220.006 25.9228C220.006 23.5309 218.067 21.5918 215.675 21.5918C213.283 21.5918 211.344 23.5309 211.344 25.9228C211.344 28.3148 213.283 30.2538 215.675 30.2538Z" fill="white" fill-opacity="0.25"/>
<path d="M5.31124 51.2909C7.7032 51.2909 9.64226 49.3519 9.64226 46.9599C9.64226 44.568 7.7032 42.6289 5.31124 42.6289C2.91929 42.6289 0.980225 44.568 0.980225 46.9599C0.980225 49.3519 2.91929 51.2909 5.31124 51.2909Z" fill="white" fill-opacity="0.25"/>
<path d="M26.3474 51.2909C28.7393 51.2909 30.6784 49.3519 30.6784 46.9599C30.6784 44.568 28.7393 42.6289 26.3474 42.6289C23.9554 42.6289 22.0164 44.568 22.0164 46.9599C22.0164 49.3519 23.9554 51.2909 26.3474 51.2909Z" fill="white" fill-opacity="0.25"/>
<path d="M47.3835 51.2909C49.7755 51.2909 51.7145 49.3519 51.7145 46.9599C51.7145 44.568 49.7755 42.6289 47.3835 42.6289C44.9916 42.6289 43.0525 44.568 43.0525 46.9599C43.0525 49.3519 44.9916 51.2909 47.3835 51.2909Z" fill="white" fill-opacity="0.25"/>
<path d="M68.4206 51.2909C70.8126 51.2909 72.7516 49.3519 72.7516 46.9599C72.7516 44.568 70.8126 42.6289 68.4206 42.6289C66.0287 42.6289 64.0896 44.568 64.0896 46.9599C64.0896 49.3519 66.0287 51.2909 68.4206 51.2909Z" fill="white" fill-opacity="0.25"/>
<path d="M89.4568 51.2909C91.8487 51.2909 93.7878 49.3519 93.7878 46.9599C93.7878 44.568 91.8487 42.6289 89.4568 42.6289C87.0648 42.6289 85.1257 44.568 85.1257 46.9599C85.1257 49.3519 87.0648 51.2909 89.4568 51.2909Z" fill="white" fill-opacity="0.25"/>
<path d="M110.493 51.2909C112.885 51.2909 114.824 49.3519 114.824 46.9599C114.824 44.568 112.885 42.6289 110.493 42.6289C108.101 42.6289 106.162 44.568 106.162 46.9599C106.162 49.3519 108.101 51.2909 110.493 51.2909Z" fill="white" fill-opacity="0.25"/>
<path d="M131.529 51.2909C133.921 51.2909 135.86 49.3519 135.86 46.9599C135.86 44.568 133.921 42.6289 131.529 42.6289C129.137 42.6289 127.198 44.568 127.198 46.9599C127.198 49.3519 129.137 51.2909 131.529 51.2909Z" fill="white" fill-opacity="0.25"/>
<path d="M152.566 51.2909C154.958 51.2909 156.897 49.3519 156.897 46.9599C156.897 44.568 154.958 42.6289 152.566 42.6289C150.174 42.6289 148.235 44.568 148.235 46.9599C148.235 49.3519 150.174 51.2909 152.566 51.2909Z" fill="white" fill-opacity="0.25"/>
<path d="M173.602 51.2909C175.994 51.2909 177.933 49.3519 177.933 46.9599C177.933 44.568 175.994 42.6289 173.602 42.6289C171.21 42.6289 169.271 44.568 169.271 46.9599C169.271 49.3519 171.21 51.2909 173.602 51.2909Z" fill="white" fill-opacity="0.25"/>
<path d="M194.638 51.2909C197.03 51.2909 198.969 49.3519 198.969 46.9599C198.969 44.568 197.03 42.6289 194.638 42.6289C192.246 42.6289 190.307 44.568 190.307 46.9599C190.307 49.3519 192.246 51.2909 194.638 51.2909Z" fill="white" fill-opacity="0.25"/>
<path d="M215.675 51.2909C218.067 51.2909 220.006 49.3519 220.006 46.9599C220.006 44.568 218.067 42.6289 215.675 42.6289C213.283 42.6289 211.344 44.568 211.344 46.9599C211.344 49.3519 213.283 51.2909 215.675 51.2909Z" fill="white" fill-opacity="0.25"/>
<path d="M5.31124 72.3271C7.7032 72.3271 9.64226 70.388 9.64226 67.9961C9.64226 65.6041 7.7032 63.665 5.31124 63.665C2.91929 63.665 0.980225 65.6041 0.980225 67.9961C0.980225 70.388 2.91929 72.3271 5.31124 72.3271Z" fill="white" fill-opacity="0.25"/>
<path d="M26.3474 72.3271C28.7393 72.3271 30.6784 70.388 30.6784 67.9961C30.6784 65.6041 28.7393 63.665 26.3474 63.665C23.9554 63.665 22.0164 65.6041 22.0164 67.9961C22.0164 70.388 23.9554 72.3271 26.3474 72.3271Z" fill="white" fill-opacity="0.25"/>
<path d="M47.3835 72.3271C49.7755 72.3271 51.7145 70.388 51.7145 67.9961C51.7145 65.6041 49.7755 63.665 47.3835 63.665C44.9916 63.665 43.0525 65.6041 43.0525 67.9961C43.0525 70.388 44.9916 72.3271 47.3835 72.3271Z" fill="white" fill-opacity="0.25"/>
<path d="M68.4206 72.3271C70.8126 72.3271 72.7516 70.388 72.7516 67.9961C72.7516 65.6041 70.8126 63.665 68.4206 63.665C66.0287 63.665 64.0896 65.6041 64.0896 67.9961C64.0896 70.388 66.0287 72.3271 68.4206 72.3271Z" fill="white" fill-opacity="0.25"/>
<path d="M89.4568 72.3271C91.8487 72.3271 93.7878 70.388 93.7878 67.9961C93.7878 65.6041 91.8487 63.665 89.4568 63.665C87.0648 63.665 85.1257 65.6041 85.1257 67.9961C85.1257 70.388 87.0648 72.3271 89.4568 72.3271Z" fill="white" fill-opacity="0.25"/>
<path d="M110.493 72.3271C112.885 72.3271 114.824 70.388 114.824 67.9961C114.824 65.6041 112.885 63.665 110.493 63.665C108.101 63.665 106.162 65.6041 106.162 67.9961C106.162 70.388 108.101 72.3271 110.493 72.3271Z" fill="white" fill-opacity="0.25"/>
<path d="M131.529 72.3271C133.921 72.3271 135.86 70.388 135.86 67.9961C135.86 65.6041 133.921 63.665 131.529 63.665C129.137 63.665 127.198 65.6041 127.198 67.9961C127.198 70.388 129.137 72.3271 131.529 72.3271Z" fill="white" fill-opacity="0.25"/>
<path d="M152.566 72.3271C154.958 72.3271 156.897 70.388 156.897 67.9961C156.897 65.6041 154.958 63.665 152.566 63.665C150.174 63.665 148.235 65.6041 148.235 67.9961C148.235 70.388 150.174 72.3271 152.566 72.3271Z" fill="white" fill-opacity="0.25"/>
<path d="M173.602 72.3271C175.994 72.3271 177.933 70.388 177.933 67.9961C177.933 65.6041 175.994 63.665 173.602 63.665C171.21 63.665 169.271 65.6041 169.271 67.9961C169.271 70.388 171.21 72.3271 173.602 72.3271Z" fill="white" fill-opacity="0.25"/>
<path d="M194.638 72.3271C197.03 72.3271 198.969 70.388 198.969 67.9961C198.969 65.6041 197.03 63.665 194.638 63.665C192.246 63.665 190.307 65.6041 190.307 67.9961C190.307 70.388 192.246 72.3271 194.638 72.3271Z" fill="white" fill-opacity="0.25"/>
<path d="M215.675 72.3271C218.067 72.3271 220.006 70.388 220.006 67.9961C220.006 65.6041 218.067 63.665 215.675 63.665C213.283 63.665 211.344 65.6041 211.344 67.9961C211.344 70.388 213.283 72.3271 215.675 72.3271Z" fill="white" fill-opacity="0.25"/>
<path d="M5.31124 93.3632C7.7032 93.3632 9.64226 91.4242 9.64226 89.0322C9.64226 86.6402 7.7032 84.7012 5.31124 84.7012C2.91929 84.7012 0.980225 86.6402 0.980225 89.0322C0.980225 91.4242 2.91929 93.3632 5.31124 93.3632Z" fill="white" fill-opacity="0.25"/>
<path d="M26.3474 93.3632C28.7393 93.3632 30.6784 91.4242 30.6784 89.0322C30.6784 86.6402 28.7393 84.7012 26.3474 84.7012C23.9554 84.7012 22.0164 86.6402 22.0164 89.0322C22.0164 91.4242 23.9554 93.3632 26.3474 93.3632Z" fill="white" fill-opacity="0.25"/>
<path d="M47.3835 93.3632C49.7755 93.3632 51.7145 91.4242 51.7145 89.0322C51.7145 86.6402 49.7755 84.7012 47.3835 84.7012C44.9916 84.7012 43.0525 86.6402 43.0525 89.0322C43.0525 91.4242 44.9916 93.3632 47.3835 93.3632Z" fill="white" fill-opacity="0.25"/>
<path d="M68.4206 93.3632C70.8126 93.3632 72.7516 91.4242 72.7516 89.0322C72.7516 86.6402 70.8126 84.7012 68.4206 84.7012C66.0287 84.7012 64.0896 86.6402 64.0896 89.0322C64.0896 91.4242 66.0287 93.3632 68.4206 93.3632Z" fill="white" fill-opacity="0.25"/>
<path d="M89.4568 93.3632C91.8487 93.3632 93.7878 91.4242 93.7878 89.0322C93.7878 86.6402 91.8487 84.7012 89.4568 84.7012C87.0648 84.7012 85.1257 86.6402 85.1257 89.0322C85.1257 91.4242 87.0648 93.3632 89.4568 93.3632Z" fill="white" fill-opacity="0.25"/>
<path d="M110.493 93.3632C112.885 93.3632 114.824 91.4242 114.824 89.0322C114.824 86.6402 112.885 84.7012 110.493 84.7012C108.101 84.7012 106.162 86.6402 106.162 89.0322C106.162 91.4242 108.101 93.3632 110.493 93.3632Z" fill="white" fill-opacity="0.25"/>
<path d="M131.529 93.3632C133.921 93.3632 135.86 91.4242 135.86 89.0322C135.86 86.6402 133.921 84.7012 131.529 84.7012C129.137 84.7012 127.198 86.6402 127.198 89.0322C127.198 91.4242 129.137 93.3632 131.529 93.3632Z" fill="white" fill-opacity="0.25"/>
<path d="M152.566 93.3632C154.958 93.3632 156.897 91.4242 156.897 89.0322C156.897 86.6402 154.958 84.7012 152.566 84.7012C150.174 84.7012 148.235 86.6402 148.235 89.0322C148.235 91.4242 150.174 93.3632 152.566 93.3632Z" fill="white" fill-opacity="0.25"/>
<path d="M173.602 93.3632C175.994 93.3632 177.933 91.4242 177.933 89.0322C177.933 86.6402 175.994 84.7012 173.602 84.7012C171.21 84.7012 169.271 86.6402 169.271 89.0322C169.271 91.4242 171.21 93.3632 173.602 93.3632Z" fill="white" fill-opacity="0.25"/>
<path d="M194.638 93.3632C197.03 93.3632 198.969 91.4242 198.969 89.0322C198.969 86.6402 197.03 84.7012 194.638 84.7012C192.246 84.7012 190.307 86.6402 190.307 89.0322C190.307 91.4242 192.246 93.3632 194.638 93.3632Z" fill="white" fill-opacity="0.25"/>
<path d="M215.675 93.3632C218.067 93.3632 220.006 91.4242 220.006 89.0322C220.006 86.6402 218.067 84.7012 215.675 84.7012C213.283 84.7012 211.344 86.6402 211.344 89.0322C211.344 91.4242 213.283 93.3632 215.675 93.3632Z" fill="white" fill-opacity="0.25"/>
<path d="M5.31124 114.4C7.7032 114.4 9.64226 112.461 9.64226 110.069C9.64226 107.677 7.7032 105.738 5.31124 105.738C2.91929 105.738 0.980225 107.677 0.980225 110.069C0.980225 112.461 2.91929 114.4 5.31124 114.4Z" fill="white" fill-opacity="0.25"/>
<path d="M26.3474 114.4C28.7393 114.4 30.6784 112.461 30.6784 110.069C30.6784 107.677 28.7393 105.738 26.3474 105.738C23.9554 105.738 22.0164 107.677 22.0164 110.069C22.0164 112.461 23.9554 114.4 26.3474 114.4Z" fill="white" fill-opacity="0.25"/>
<path d="M47.3835 114.4C49.7755 114.4 51.7145 112.461 51.7145 110.069C51.7145 107.677 49.7755 105.738 47.3835 105.738C44.9916 105.738 43.0525 107.677 43.0525 110.069C43.0525 112.461 44.9916 114.4 47.3835 114.4Z" fill="white" fill-opacity="0.25"/>
<path d="M68.4206 114.4C70.8126 114.4 72.7516 112.461 72.7516 110.069C72.7516 107.677 70.8126 105.738 68.4206 105.738C66.0287 105.738 64.0896 107.677 64.0896 110.069C64.0896 112.461 66.0287 114.4 68.4206 114.4Z" fill="white" fill-opacity="0.25"/>
<path d="M89.4568 114.4C91.8487 114.4 93.7878 112.461 93.7878 110.069C93.7878 107.677 91.8487 105.738 89.4568 105.738C87.0648 105.738 85.1257 107.677 85.1257 110.069C85.1257 112.461 87.0648 114.4 89.4568 114.4Z" fill="white" fill-opacity="0.25"/>
<path d="M110.493 114.4C112.885 114.4 114.824 112.461 114.824 110.069C114.824 107.677 112.885 105.738 110.493 105.738C108.101 105.738 106.162 107.677 106.162 110.069C106.162 112.461 108.101 114.4 110.493 114.4Z" fill="white" fill-opacity="0.25"/>
<path d="M131.529 114.4C133.921 114.4 135.86 112.461 135.86 110.069C135.86 107.677 133.921 105.738 131.529 105.738C129.137 105.738 127.198 107.677 127.198 110.069C127.198 112.461 129.137 114.4 131.529 114.4Z" fill="white" fill-opacity="0.25"/>
<path d="M152.566 114.4C154.958 114.4 156.897 112.461 156.897 110.069C156.897 107.677 154.958 105.738 152.566 105.738C150.174 105.738 148.235 107.677 148.235 110.069C148.235 112.461 150.174 114.4 152.566 114.4Z" fill="white" fill-opacity="0.25"/>
<path d="M173.602 114.4C175.994 114.4 177.933 112.461 177.933 110.069C177.933 107.677 175.994 105.738 173.602 105.738C171.21 105.738 169.271 107.677 169.271 110.069C169.271 112.461 171.21 114.4 173.602 114.4Z" fill="white" fill-opacity="0.25"/>
<path d="M194.638 114.4C197.03 114.4 198.969 112.461 198.969 110.069C198.969 107.677 197.03 105.738 194.638 105.738C192.246 105.738 190.307 107.677 190.307 110.069C190.307 112.461 192.246 114.4 194.638 114.4Z" fill="white" fill-opacity="0.25"/>
<path d="M215.675 114.4C218.067 114.4 220.006 112.461 220.006 110.069C220.006 107.677 218.067 105.738 215.675 105.738C213.283 105.738 211.344 107.677 211.344 110.069C211.344 112.461 213.283 114.4 215.675 114.4Z" fill="white" fill-opacity="0.25"/>
<path d="M5.31124 135.435C7.7032 135.435 9.64226 133.496 9.64226 131.104C9.64226 128.712 7.7032 126.773 5.31124 126.773C2.91929 126.773 0.980225 128.712 0.980225 131.104C0.980225 133.496 2.91929 135.435 5.31124 135.435Z" fill="white" fill-opacity="0.25"/>
<path d="M26.3474 135.435C28.7393 135.435 30.6784 133.496 30.6784 131.104C30.6784 128.712 28.7393 126.773 26.3474 126.773C23.9554 126.773 22.0164 128.712 22.0164 131.104C22.0164 133.496 23.9554 135.435 26.3474 135.435Z" fill="white" fill-opacity="0.25"/>
<path d="M47.3835 135.435C49.7755 135.435 51.7145 133.496 51.7145 131.104C51.7145 128.712 49.7755 126.773 47.3835 126.773C44.9916 126.773 43.0525 128.712 43.0525 131.104C43.0525 133.496 44.9916 135.435 47.3835 135.435Z" fill="white" fill-opacity="0.25"/>
<path d="M68.4206 135.435C70.8126 135.435 72.7516 133.496 72.7516 131.104C72.7516 128.712 70.8126 126.773 68.4206 126.773C66.0287 126.773 64.0896 128.712 64.0896 131.104C64.0896 133.496 66.0287 135.435 68.4206 135.435Z" fill="white" fill-opacity="0.25"/>
<path d="M89.4568 135.435C91.8487 135.435 93.7878 133.496 93.7878 131.104C93.7878 128.712 91.8487 126.773 89.4568 126.773C87.0648 126.773 85.1257 128.712 85.1257 131.104C85.1257 133.496 87.0648 135.435 89.4568 135.435Z" fill="white" fill-opacity="0.25"/>
<path d="M110.493 135.435C112.885 135.435 114.824 133.496 114.824 131.104C114.824 128.712 112.885 126.773 110.493 126.773C108.101 126.773 106.162 128.712 106.162 131.104C106.162 133.496 108.101 135.435 110.493 135.435Z" fill="white" fill-opacity="0.25"/>
<path d="M131.529 135.435C133.921 135.435 135.86 133.496 135.86 131.104C135.86 128.712 133.921 126.773 131.529 126.773C129.137 126.773 127.198 128.712 127.198 131.104C127.198 133.496 129.137 135.435 131.529 135.435Z" fill="white" fill-opacity="0.25"/>
<path d="M152.566 135.435C154.958 135.435 156.897 133.496 156.897 131.104C156.897 128.712 154.958 126.773 152.566 126.773C150.174 126.773 148.235 128.712 148.235 131.104C148.235 133.496 150.174 135.435 152.566 135.435Z" fill="white" fill-opacity="0.25"/>
<path d="M173.602 135.435C175.994 135.435 177.933 133.496 177.933 131.104C177.933 128.712 175.994 126.773 173.602 126.773C171.21 126.773 169.271 128.712 169.271 131.104C169.271 133.496 171.21 135.435 173.602 135.435Z" fill="white" fill-opacity="0.25"/>
<path d="M194.638 135.435C197.03 135.435 198.969 133.496 198.969 131.104C198.969 128.712 197.03 126.773 194.638 126.773C192.246 126.773 190.307 128.712 190.307 131.104C190.307 133.496 192.246 135.435 194.638 135.435Z" fill="white" fill-opacity="0.25"/>
<path d="M215.675 135.435C218.067 135.435 220.006 133.496 220.006 131.104C220.006 128.712 218.067 126.773 215.675 126.773C213.283 126.773 211.344 128.712 211.344 131.104C211.344 133.496 213.283 135.435 215.675 135.435Z" fill="white" fill-opacity="0.25"/>
<path d="M5.31124 156.473C7.7032 156.473 9.64226 154.534 9.64226 152.142C9.64226 149.75 7.7032 147.811 5.31124 147.811C2.91929 147.811 0.980225 149.75 0.980225 152.142C0.980225 154.534 2.91929 156.473 5.31124 156.473Z" fill="white" fill-opacity="0.25"/>
<path d="M26.3474 156.473C28.7393 156.473 30.6784 154.534 30.6784 152.142C30.6784 149.75 28.7393 147.811 26.3474 147.811C23.9554 147.811 22.0164 149.75 22.0164 152.142C22.0164 154.534 23.9554 156.473 26.3474 156.473Z" fill="white" fill-opacity="0.25"/>
<path d="M47.3835 156.473C49.7755 156.473 51.7145 154.534 51.7145 152.142C51.7145 149.75 49.7755 147.811 47.3835 147.811C44.9916 147.811 43.0525 149.75 43.0525 152.142C43.0525 154.534 44.9916 156.473 47.3835 156.473Z" fill="white" fill-opacity="0.25"/>
<path d="M68.4206 156.473C70.8126 156.473 72.7516 154.534 72.7516 152.142C72.7516 149.75 70.8126 147.811 68.4206 147.811C66.0287 147.811 64.0896 149.75 64.0896 152.142C64.0896 154.534 66.0287 156.473 68.4206 156.473Z" fill="white" fill-opacity="0.25"/>
<path d="M89.4568 156.473C91.8487 156.473 93.7878 154.534 93.7878 152.142C93.7878 149.75 91.8487 147.811 89.4568 147.811C87.0648 147.811 85.1257 149.75 85.1257 152.142C85.1257 154.534 87.0648 156.473 89.4568 156.473Z" fill="white" fill-opacity="0.25"/>
<path d="M110.493 156.473C112.885 156.473 114.824 154.534 114.824 152.142C114.824 149.75 112.885 147.811 110.493 147.811C108.101 147.811 106.162 149.75 106.162 152.142C106.162 154.534 108.101 156.473 110.493 156.473Z" fill="white" fill-opacity="0.25"/>
<path d="M131.529 156.473C133.921 156.473 135.86 154.534 135.86 152.142C135.86 149.75 133.921 147.811 131.529 147.811C129.137 147.811 127.198 149.75 127.198 152.142C127.198 154.534 129.137 156.473 131.529 156.473Z" fill="white" fill-opacity="0.25"/>
<path d="M152.566 156.473C154.958 156.473 156.897 154.534 156.897 152.142C156.897 149.75 154.958 147.811 152.566 147.811C150.174 147.811 148.235 149.75 148.235 152.142C148.235 154.534 150.174 156.473 152.566 156.473Z" fill="white" fill-opacity="0.25"/>
<path d="M173.602 156.473C175.994 156.473 177.933 154.534 177.933 152.142C177.933 149.75 175.994 147.811 173.602 147.811C171.21 147.811 169.271 149.75 169.271 152.142C169.271 154.534 171.21 156.473 173.602 156.473Z" fill="white" fill-opacity="0.25"/>
<path d="M194.638 156.473C197.03 156.473 198.969 154.534 198.969 152.142C198.969 149.75 197.03 147.811 194.638 147.811C192.246 147.811 190.307 149.75 190.307 152.142C190.307 154.534 192.246 156.473 194.638 156.473Z" fill="white" fill-opacity="0.25"/>
<path d="M215.675 156.473C218.067 156.473 220.006 154.534 220.006 152.142C220.006 149.75 218.067 147.811 215.675 147.811C213.283 147.811 211.344 149.75 211.344 152.142C211.344 154.534 213.283 156.473 215.675 156.473Z" fill="white" fill-opacity="0.25"/>
<path d="M5.31124 177.509C7.7032 177.509 9.64226 175.57 9.64226 173.178C9.64226 170.786 7.7032 168.847 5.31124 168.847C2.91929 168.847 0.980225 170.786 0.980225 173.178C0.980225 175.57 2.91929 177.509 5.31124 177.509Z" fill="white" fill-opacity="0.25"/>
<path d="M26.3474 177.509C28.7393 177.509 30.6784 175.57 30.6784 173.178C30.6784 170.786 28.7393 168.847 26.3474 168.847C23.9554 168.847 22.0164 170.786 22.0164 173.178C22.0164 175.57 23.9554 177.509 26.3474 177.509Z" fill="white" fill-opacity="0.25"/>
<path d="M47.3835 177.509C49.7755 177.509 51.7145 175.57 51.7145 173.178C51.7145 170.786 49.7755 168.847 47.3835 168.847C44.9916 168.847 43.0525 170.786 43.0525 173.178C43.0525 175.57 44.9916 177.509 47.3835 177.509Z" fill="white" fill-opacity="0.25"/>
<path d="M68.4206 177.509C70.8126 177.509 72.7516 175.57 72.7516 173.178C72.7516 170.786 70.8126 168.847 68.4206 168.847C66.0287 168.847 64.0896 170.786 64.0896 173.178C64.0896 175.57 66.0287 177.509 68.4206 177.509Z" fill="white" fill-opacity="0.25"/>
<path d="M89.4568 177.509C91.8487 177.509 93.7878 175.57 93.7878 173.178C93.7878 170.786 91.8487 168.847 89.4568 168.847C87.0648 168.847 85.1257 170.786 85.1257 173.178C85.1257 175.57 87.0648 177.509 89.4568 177.509Z" fill="white" fill-opacity="0.25"/>
<path d="M110.493 177.509C112.885 177.509 114.824 175.57 114.824 173.178C114.824 170.786 112.885 168.847 110.493 168.847C108.101 168.847 106.162 170.786 106.162 173.178C106.162 175.57 108.101 177.509 110.493 177.509Z" fill="white" fill-opacity="0.25"/>
<path d="M131.529 177.509C133.921 177.509 135.86 175.57 135.86 173.178C135.86 170.786 133.921 168.847 131.529 168.847C129.137 168.847 127.198 170.786 127.198 173.178C127.198 175.57 129.137 177.509 131.529 177.509Z" fill="white" fill-opacity="0.25"/>
<path d="M152.566 177.509C154.958 177.509 156.897 175.57 156.897 173.178C156.897 170.786 154.958 168.847 152.566 168.847C150.174 168.847 148.235 170.786 148.235 173.178C148.235 175.57 150.174 177.509 152.566 177.509Z" fill="white" fill-opacity="0.25"/>
<path d="M173.602 177.509C175.994 177.509 177.933 175.57 177.933 173.178C177.933 170.786 175.994 168.847 173.602 168.847C171.21 168.847 169.271 170.786 169.271 173.178C169.271 175.57 171.21 177.509 173.602 177.509Z" fill="white" fill-opacity="0.25"/>
<path d="M194.638 177.509C197.03 177.509 198.969 175.57 198.969 173.178C198.969 170.786 197.03 168.847 194.638 168.847C192.246 168.847 190.307 170.786 190.307 173.178C190.307 175.57 192.246 177.509 194.638 177.509Z" fill="white" fill-opacity="0.25"/>
<path d="M215.675 177.509C218.067 177.509 220.006 175.57 220.006 173.178C220.006 170.786 218.067 168.847 215.675 168.847C213.283 168.847 211.344 170.786 211.344 173.178C211.344 175.57 213.283 177.509 215.675 177.509Z" fill="white" fill-opacity="0.25"/>
<path d="M5.31124 198.545C7.7032 198.545 9.64226 196.606 9.64226 194.214C9.64226 191.822 7.7032 189.883 5.31124 189.883C2.91929 189.883 0.980225 191.822 0.980225 194.214C0.980225 196.606 2.91929 198.545 5.31124 198.545Z" fill="white" fill-opacity="0.25"/>
<path d="M26.3474 198.545C28.7393 198.545 30.6784 196.606 30.6784 194.214C30.6784 191.822 28.7393 189.883 26.3474 189.883C23.9554 189.883 22.0164 191.822 22.0164 194.214C22.0164 196.606 23.9554 198.545 26.3474 198.545Z" fill="white" fill-opacity="0.25"/>
<path d="M47.3835 198.545C49.7755 198.545 51.7145 196.606 51.7145 194.214C51.7145 191.822 49.7755 189.883 47.3835 189.883C44.9916 189.883 43.0525 191.822 43.0525 194.214C43.0525 196.606 44.9916 198.545 47.3835 198.545Z" fill="white" fill-opacity="0.25"/>
<path d="M68.4206 198.545C70.8126 198.545 72.7516 196.606 72.7516 194.214C72.7516 191.822 70.8126 189.883 68.4206 189.883C66.0287 189.883 64.0896 191.822 64.0896 194.214C64.0896 196.606 66.0287 198.545 68.4206 198.545Z" fill="white" fill-opacity="0.25"/>
<path d="M89.4568 198.545C91.8487 198.545 93.7878 196.606 93.7878 194.214C93.7878 191.822 91.8487 189.883 89.4568 189.883C87.0648 189.883 85.1257 191.822 85.1257 194.214C85.1257 196.606 87.0648 198.545 89.4568 198.545Z" fill="white" fill-opacity="0.25"/>
<path d="M110.493 198.545C112.885 198.545 114.824 196.606 114.824 194.214C114.824 191.822 112.885 189.883 110.493 189.883C108.101 189.883 106.162 191.822 106.162 194.214C106.162 196.606 108.101 198.545 110.493 198.545Z" fill="white" fill-opacity="0.25"/>
<path d="M131.529 198.545C133.921 198.545 135.86 196.606 135.86 194.214C135.86 191.822 133.921 189.883 131.529 189.883C129.137 189.883 127.198 191.822 127.198 194.214C127.198 196.606 129.137 198.545 131.529 198.545Z" fill="white" fill-opacity="0.25"/>
<path d="M152.566 198.545C154.958 198.545 156.897 196.606 156.897 194.214C156.897 191.822 154.958 189.883 152.566 189.883C150.174 189.883 148.235 191.822 148.235 194.214C148.235 196.606 150.174 198.545 152.566 198.545Z" fill="white" fill-opacity="0.25"/>
<path d="M173.602 198.545C175.994 198.545 177.933 196.606 177.933 194.214C177.933 191.822 175.994 189.883 173.602 189.883C171.21 189.883 169.271 191.822 169.271 194.214C169.271 196.606 171.21 198.545 173.602 198.545Z" fill="white" fill-opacity="0.25"/>
<path d="M194.638 198.545C197.03 198.545 198.969 196.606 198.969 194.214C198.969 191.822 197.03 189.883 194.638 189.883C192.246 189.883 190.307 191.822 190.307 194.214C190.307 196.606 192.246 198.545 194.638 198.545Z" fill="white" fill-opacity="0.25"/>
<path d="M215.675 198.545C218.067 198.545 220.006 196.606 220.006 194.214C220.006 191.822 218.067 189.883 215.675 189.883C213.283 189.883 211.344 191.822 211.344 194.214C211.344 196.606 213.283 198.545 215.675 198.545Z" fill="white" fill-opacity="0.25"/>
<path d="M5.31124 219.581C7.7032 219.581 9.64226 217.642 9.64226 215.25C9.64226 212.859 7.7032 210.919 5.31124 210.919C2.91929 210.919 0.980225 212.859 0.980225 215.25C0.980225 217.642 2.91929 219.581 5.31124 219.581Z" fill="white" fill-opacity="0.25"/>
<path d="M26.3474 219.581C28.7393 219.581 30.6784 217.642 30.6784 215.25C30.6784 212.859 28.7393 210.919 26.3474 210.919C23.9554 210.919 22.0164 212.859 22.0164 215.25C22.0164 217.642 23.9554 219.581 26.3474 219.581Z" fill="white" fill-opacity="0.25"/>
<path d="M47.3835 219.581C49.7755 219.581 51.7145 217.642 51.7145 215.25C51.7145 212.859 49.7755 210.919 47.3835 210.919C44.9916 210.919 43.0525 212.859 43.0525 215.25C43.0525 217.642 44.9916 219.581 47.3835 219.581Z" fill="white" fill-opacity="0.25"/>
<path d="M68.4206 219.581C70.8126 219.581 72.7516 217.642 72.7516 215.25C72.7516 212.859 70.8126 210.919 68.4206 210.919C66.0287 210.919 64.0896 212.859 64.0896 215.25C64.0896 217.642 66.0287 219.581 68.4206 219.581Z" fill="white" fill-opacity="0.25"/>
<path d="M89.4568 219.581C91.8487 219.581 93.7878 217.642 93.7878 215.25C93.7878 212.859 91.8487 210.919 89.4568 210.919C87.0648 210.919 85.1257 212.859 85.1257 215.25C85.1257 217.642 87.0648 219.581 89.4568 219.581Z" fill="white" fill-opacity="0.25"/>
<path d="M110.493 219.581C112.885 219.581 114.824 217.642 114.824 215.25C114.824 212.859 112.885 210.919 110.493 210.919C108.101 210.919 106.162 212.859 106.162 215.25C106.162 217.642 108.101 219.581 110.493 219.581Z" fill="white" fill-opacity="0.25"/>
<path d="M131.529 219.581C133.921 219.581 135.86 217.642 135.86 215.25C135.86 212.859 133.921 210.919 131.529 210.919C129.137 210.919 127.198 212.859 127.198 215.25C127.198 217.642 129.137 219.581 131.529 219.581Z" fill="white" fill-opacity="0.25"/>
<path d="M152.566 219.581C154.958 219.581 156.897 217.642 156.897 215.25C156.897 212.859 154.958 210.919 152.566 210.919C150.174 210.919 148.235 212.859 148.235 215.25C148.235 217.642 150.174 219.581 152.566 219.581Z" fill="white" fill-opacity="0.25"/>
<path d="M173.602 219.581C175.994 219.581 177.933 217.642 177.933 215.25C177.933 212.859 175.994 210.919 173.602 210.919C171.21 210.919 169.271 212.859 169.271 215.25C169.271 217.642 171.21 219.581 173.602 219.581Z" fill="white" fill-opacity="0.25"/>
<path d="M194.638 219.581C197.03 219.581 198.969 217.642 198.969 215.25C198.969 212.859 197.03 210.919 194.638 210.919C192.246 210.919 190.307 212.859 190.307 215.25C190.307 217.642 192.246 219.581 194.638 219.581Z" fill="white" fill-opacity="0.25"/>
<path d="M215.675 219.581C218.067 219.581 220.006 217.642 220.006 215.25C220.006 212.859 218.067 210.919 215.675 210.919C213.283 210.919 211.344 212.859 211.344 215.25C211.344 217.642 213.283 219.581 215.675 219.581Z" fill="white" fill-opacity="0.25"/>
<path d="M5.31124 240.618C7.7032 240.618 9.64226 238.679 9.64226 236.287C9.64226 233.895 7.7032 231.956 5.31124 231.956C2.91929 231.956 0.980225 233.895 0.980225 236.287C0.980225 238.679 2.91929 240.618 5.31124 240.618Z" fill="white" fill-opacity="0.25"/>
<path d="M26.3474 240.618C28.7393 240.618 30.6784 238.679 30.6784 236.287C30.6784 233.895 28.7393 231.956 26.3474 231.956C23.9554 231.956 22.0164 233.895 22.0164 236.287C22.0164 238.679 23.9554 240.618 26.3474 240.618Z" fill="white" fill-opacity="0.25"/>
<path d="M47.3835 240.618C49.7755 240.618 51.7145 238.679 51.7145 236.287C51.7145 233.895 49.7755 231.956 47.3835 231.956C44.9916 231.956 43.0525 233.895 43.0525 236.287C43.0525 238.679 44.9916 240.618 47.3835 240.618Z" fill="white" fill-opacity="0.25"/>
<path d="M68.4206 240.618C70.8126 240.618 72.7516 238.679 72.7516 236.287C72.7516 233.895 70.8126 231.956 68.4206 231.956C66.0287 231.956 64.0896 233.895 64.0896 236.287C64.0896 238.679 66.0287 240.618 68.4206 240.618Z" fill="white" fill-opacity="0.25"/>
<path d="M89.4568 240.618C91.8487 240.618 93.7878 238.679 93.7878 236.287C93.7878 233.895 91.8487 231.956 89.4568 231.956C87.0648 231.956 85.1257 233.895 85.1257 236.287C85.1257 238.679 87.0648 240.618 89.4568 240.618Z" fill="white" fill-opacity="0.25"/>
<path d="M110.493 240.618C112.885 240.618 114.824 238.679 114.824 236.287C114.824 233.895 112.885 231.956 110.493 231.956C108.101 231.956 106.162 233.895 106.162 236.287C106.162 238.679 108.101 240.618 110.493 240.618Z" fill="white" fill-opacity="0.25"/>
<path d="M131.529 240.618C133.921 240.618 135.86 238.679 135.86 236.287C135.86 233.895 133.921 231.956 131.529 231.956C129.137 231.956 127.198 233.895 127.198 236.287C127.198 238.679 129.137 240.618 131.529 240.618Z" fill="white" fill-opacity="0.25"/>
<path d="M152.566 240.618C154.958 240.618 156.897 238.679 156.897 236.287C156.897 233.895 154.958 231.956 152.566 231.956C150.174 231.956 148.235 233.895 148.235 236.287C148.235 238.679 150.174 240.618 152.566 240.618Z" fill="white" fill-opacity="0.25"/>
<path d="M173.602 240.618C175.994 240.618 177.933 238.679 177.933 236.287C177.933 233.895 175.994 231.956 173.602 231.956C171.21 231.956 169.271 233.895 169.271 236.287C169.271 238.679 171.21 240.618 173.602 240.618Z" fill="white" fill-opacity="0.25"/>
<path d="M194.638 240.618C197.03 240.618 198.969 238.679 198.969 236.287C198.969 233.895 197.03 231.956 194.638 231.956C192.246 231.956 190.307 233.895 190.307 236.287C190.307 238.679 192.246 240.618 194.638 240.618Z" fill="white" fill-opacity="0.25"/>
<path d="M215.675 240.618C218.067 240.618 220.006 238.679 220.006 236.287C220.006 233.895 218.067 231.956 215.675 231.956C213.283 231.956 211.344 233.895 211.344 236.287C211.344 238.679 213.283 240.618 215.675 240.618Z" fill="white" fill-opacity="0.25"/>
</g>
</g>
<defs>
<clipPath id="clip0_19_1102">
<rect width="220" height="240" fill="white" transform="translate(0.980225 0.555664)"/>
</clipPath>
<clipPath id="clip1_19_1102">
<rect width="220" height="241" fill="white" transform="translate(0.980225 0.555664)"/>
</clipPath>
</defs>
</svg>
